<svg xmlns="http://www.w3.org/2000/svg" width="1024" height="1024" viewBox="0 0 768 768" preserveAspectRatio="xMidYMid meet">
  <!-- Ticks Group -->
  <g class="ticks" stroke="#1a1a1a" fill="none" stroke-linecap="round" stroke-linejoin="miter">
    <!-- Small Ticks -->
    <path stroke-width="20" d="M 9.999188 10.001409 L 27.431612 9.998259 " transform="matrix(0.749995, -0.00277754, 0.00277754, 0.749995, 138.113507, 387.206456)"/>
    <path stroke-width="20" d="M 10.000261 9.997792 L 27.432665 9.999851 " transform="matrix(0.749995, -0.00277754, 0.00277754, 0.749995, 604.718181, 387.154484)"/>
    <path stroke-width="14" d="M 6.999466 6.999653 L 24.754712 7.002638 " transform="matrix(0.649519, 0.375, -0.375, 0.649519, 576.965302, 505.762387)"/>
    <path stroke-width="14" d="M 6.999401 6.997428 L 24.754647 7.000414 " transform="matrix(0.649519, 0.375, -0.375, 0.649519, 179.550448, 262.447449)"/>
    <path stroke-width="14" d="M 6.998358 6.999734 L 23.746923 6.998647 " transform="matrix(0.380121, 0.646535, -0.646535, 0.380121, 273.470819, 177.099724)"/>
    <path stroke-width="14" d="M 6.997421 7.001066 L 23.745986 6.999979 " transform="matrix(0.380121, 0.646535, -0.646535, 0.380121, 496.190786, 586.904511)"/>
    <path stroke-width="14" d="M 6.997123 7.000284 L 24.054666 6.997422 " transform="matrix(-0.649519, 0.375, -0.375, -0.649519, 199.939402, 514.856491)"/>
    <path stroke-width="14" d="M 7.002844 7.000131 L 24.057783 7.001779 " transform="matrix(-0.649519, 0.375, -0.375, -0.649519, 597.361029, 270.90112)"/>
    <path stroke-width="14" d="M 7.000146 6.999599 L 23.803142 6.999073 " transform="matrix(-0.375, 0.649519, -0.649519, -0.375, 508.683146, 182.566403)"/>
    <path stroke-width="14" d="M 7.001266 6.997105 L 24.842307 7.001126 " transform="matrix(-0.360677, 0.65758, -0.65758, -0.360677, 284.817762, 591.486207)"/>
    <path stroke-width="20" d="M 9.998504 10.000424 L 27.430796 10.000424 " transform="matrix(0, -0.75, 0.75, 0, 369.226245, 179.936377)"/>
    <path stroke-width="20" d="M 10.002144 10.000425 L 27.429229 10.000425 " transform="matrix(0, -0.75, 0.75, 0, 376.726244, 637.50942)"/>
    <!-- More Ticks overlapping with previous structure (duplicates removed for clarity if any, but keeping all existing geometry) -->
    <path stroke-width="23" d="M 11.501188 11.501552 L 31.772173 11.498498 " transform="matrix(0.749995, -0.00277754, 0.00277754, 0.749995, 98.264098, 385.944903)"/>
    <path stroke-width="23" d="M 11.501665 11.498377 L 31.772631 11.500532 " transform="matrix(0.749995, -0.00277754, 0.00277754, 0.749995, 637.677811, 385.884786)"/>
    <path stroke-width="16" d="M 7.997731 8.000792 L 28.709146 7.999013 " transform="matrix(0.649519, 0.375, -0.375, 0.649519, 605.559525, 523.015122)"/>
    <path stroke-width="16" d="M 8.000097 8.000285 L 28.711513 7.998506 " transform="matrix(0.649519, 0.375, -0.375, 0.649519, 146.132017, 241.733314)"/>
    <path stroke-width="16" d="M 7.997323 7.999688 L 27.542686 7.999564 " transform="matrix(0.380121, 0.646535, -0.646535, 0.380121, 254.68291, 143.042504)"/>
    <path stroke-width="16" d="M 8.000558 8.002512 L 27.541431 7.999747 " transform="matrix(0.380121, 0.646535, -0.646535, 0.380121, 512.156162, 616.793245)"/>
    <path stroke-width="16" d="M 8.001382 8.002695 L 27.903353 8.000224 " transform="matrix(-0.649519, 0.375, -0.375, -0.649519, 169.701967, 533.408322)"/>
    <path stroke-width="16" d="M 8.000632 7.998196 L 27.899998 8.000235 " transform="matrix(-0.649519, 0.375, -0.375, -0.649519, 629.137292, 251.38615)"/>
    <path stroke-width="16" d="M 8.001613 8.001788 L 27.607045 8.001057 " transform="matrix(-0.375, 0.649519, -0.649519, -0.375, 526.592449, 149.295658)"/>
    <path stroke-width="16" d="M 7.996663 7.999074 L 28.811825 7.999469 " transform="matrix(-0.360677, 0.65758, -0.65758, -0.360677, 267.800498, 622.021165)"/>
    <path stroke-width="23" d="M 11.499515 11.498901 L 31.770349 11.498901 " transform="matrix(0, -0.75, 0.75, 0, 368.102387, 146.288698)"/>
    <path stroke-width="23" d="M 11.499067 11.498901 L 31.769902 11.498901 " transform="matrix(0, -0.75, 0.75, 0, 375.602387, 675.788363)"/>
  </g>

  <!-- Hands Group -->
  <g id="hands" stroke="#1a1a1a" fill="none" stroke-linecap="round" stroke-linejoin="miter">
    <path stroke-width="20" d="M 9.999715 10.002655 L 114.79201 9.998912 " transform="matrix(0.659055, -0.357976, 0.357976, 0.659055, 386.860179, 383.90924)"/>
    <path stroke-width="20" d="M 10.001484 9.999168 L 63.088534 10.000313 " transform="matrix(0.353723, 0.661347, -0.661347, 0.353723, 394.852512, 398.395488)"/>
  </g>

  <!-- Outer Ring Path -->
  <defs>
    <clipPath id="a00d0c0e81"><path d="M 365.867188 376.53125 L 401.867188 376.53125 L 401.867188 412.53125 L 365.867188 412.53125 Z M 365.867188 376.53125 " clip-rule="nonzero"/></clipPath>
    <clipPath id="80ce42ab03"><path d="M 383.882812 376.53125 C 373.933594 376.53125 365.867188 384.597656 365.867188 394.550781 C 365.867188 404.5 373.933594 412.566406 383.882812 412.566406 C 393.835938 412.566406 401.902344 404.5 401.902344 394.550781 C 401.902344 384.597656 393.835938 376.53125 383.882812 376.53125 Z M 383.882812 376.53125 " clip-rule="nonzero"/></clipPath>
  </defs>
  <g clip-path="url(#a00d0c0e81)">
    <g clip-path="url(#80ce42ab03)">
      <path id="ring" stroke="#1a1a1a" stroke-width="40" fill="none" stroke-linecap="butt" transform="matrix(0.75, 0, 0, 0.75, 365.866156, 376.531525)" d="M 24.02221 -0.000367159 C 10.756584 -0.000367159 0.0013752 10.754842 0.0013752 24.025676 C 0.0013752 37.291301 10.756584 48.04651 24.02221 48.04651 C 37.293044 48.04651 48.048253 37.291301 48.048253 24.025676 C 48.048253 10.754842 37.293044 -0.000367159 24.02221 -0.000367159 Z M 24.02221 -0.000367159 "/>
    </g>
  </g>
</svg>